<svg width="279" xmlns="http://www.w3.org/2000/svg" height="279" id="screenshot-99dd9b6d-5727-80f6-8006-f3274fdcaf86" viewBox="0 0 279 279" xmlns:xlink="http://www.w3.org/1999/xlink" fill="none" version="1.1"><g id="shape-99dd9b6d-5727-80f6-8006-f3274fdcaf86" rx="0" ry="0"><g id="shape-59b31ecf-cc21-8017-8006-f323e319bea4"><g class="fills" id="fills-59b31ecf-cc21-8017-8006-f323e319bea4"><ellipse cx="139.5" cy="139.5" rx="139.5" ry="139.5" transform="matrix(1.000000, 0.000000, 0.000000, 1.000000, 0.000000, 0.000000)" style="fill: rgb(255, 255, 255); fill-opacity: 1;"/></g></g><g id="shape-99dd9b6d-5727-80f6-8006-f326741bdb03"><g class="fills" id="fills-99dd9b6d-5727-80f6-8006-f326741bdb03"><path d="M139.24559020996094,237.000244140625C230.83743286132812,176.705322265625,233,137.6982421875,233,115.451904296875C233,85.936279296875,209.97625732421875,62,181.57501220703125,62C165.11891174316406,62,153.52499389648438,66.859130859375,139.5,81.43701171875C125.47500610351562,66.859130859375,113.881103515625,62,97.42498779296875,62C69.02375030517578,62,46,85.936279296875,46,115.451904296875C46,137.8125,50.70680236816406,180.936767578125,139.24559020996094,237.000244140625L139.5,236.933837890625L139.24559020996094,237.000244140625" fill="none" stroke-linecap="round" stroke-linejoin="round" style="fill: rgb(0, 0, 0); fill-opacity: 1;"/></g><g fill="none" stroke-linecap="round" stroke-linejoin="round" id="strokes-a1b18a63-1ffb-8089-8007-1093c08fdd5a-99dd9b6d-5727-80f6-8006-f326741bdb03" class="strokes"><g class="stroke-shape"><path d="M139.24559020996094,237.000244140625C230.83743286132812,176.705322265625,233,137.6982421875,233,115.451904296875C233,85.936279296875,209.97625732421875,62,181.57501220703125,62C165.11891174316406,62,153.52499389648438,66.859130859375,139.5,81.43701171875C125.47500610351562,66.859130859375,113.881103515625,62,97.42498779296875,62C69.02375030517578,62,46,85.936279296875,46,115.451904296875C46,137.8125,50.70680236816406,180.936767578125,139.24559020996094,237.000244140625L139.5,236.933837890625L139.24559020996094,237.000244140625" style="fill: none; stroke-width: 2; stroke: rgb(0, 0, 0); stroke-opacity: 1;"/></g></g></g></g></svg>